<svg xmlns="http://www.w3.org/2000/svg" version="1.1" width="214px" height="232px" style="shape-rendering:geometricPrecision; text-rendering:geometricPrecision; image-rendering:optimizeQuality; fill-rule:evenodd; clip-rule:evenodd" xmlns:xlink="http://www.w3.org/1999/xlink">
<g><path style="opacity:1" fill="#6993a0" d="M 182.5,93.5 C 180.516,108.798 179.849,124.464 180.5,140.5C 191.149,144.382 195.316,152.049 193,163.5C 187.059,175.377 177.892,178.711 165.5,173.5C 164.685,172.163 163.518,171.163 162,170.5C 158.388,172.387 154.888,174.387 151.5,176.5C 144.475,180.541 137.475,184.541 130.5,188.5C 128.262,190.116 125.929,191.449 123.5,192.5C 123.951,211.28 114.951,218.78 96.5,215C 93.6703,213.272 91.337,211.105 89.5,208.5C 87.5008,203.074 85.8342,197.741 84.5,192.5C 78.1407,188.979 71.8074,185.312 65.5,181.5C 62.8695,179.847 60.2028,178.181 57.5,176.5C 54.2874,174.976 51.1207,173.31 48,171.5C 45.6196,172.201 43.4529,173.367 41.5,175C 23.8627,177.621 15.696,170.121 17,152.5C 18.759,145.906 22.9256,141.906 29.5,140.5C 29.5,124.833 29.5,109.167 29.5,93.5C 28.0413,93.5674 26.7079,93.2341 25.5,92.5C 24.0736,91.6588 22.7403,90.6588 21.5,89.5C 13.672,79.4513 14.3387,69.9513 23.5,61C 32.0715,55.7939 39.9048,56.6273 47,63.5C 59.7513,55.8738 72.5846,48.3738 85.5,41C 87.0431,20.4054 97.3765,13.7388 116.5,21C 117.305,22.9717 118.639,24.4717 120.5,25.5C 122.282,30.5645 123.282,35.5645 123.5,40.5C 136.305,48.2626 149.138,55.9293 162,63.5C 174.773,54.4412 185.106,56.7745 193,70.5C 194.873,80.7463 191.373,88.413 182.5,93.5 Z M 40.5,137.5 C 39.504,123.01 39.1707,108.343 39.5,93.5C 40.8333,93.1667 42.1667,92.8333 43.5,92.5C 46.1667,90.5 48.5,88.1667 50.5,85.5C 52.4616,80.8761 53.2949,76.2095 53,71.5C 58.9792,68.3388 64.8125,65.0055 70.5,61.5C 76.8984,57.4129 83.3984,53.4129 90,49.5C 90.6667,50.5 90.6667,51.5 90,52.5C 73.4611,80.9253 56.9611,109.259 40.5,137.5 Z M 119.5,50.5 C 121.75,51.1302 123.75,52.1302 125.5,53.5C 129.535,55.8483 133.535,58.1816 137.5,60.5C 139.875,61.9017 142.209,63.235 144.5,64.5C 148.66,66.4537 152.66,68.787 156.5,71.5C 157.487,74.7683 157.82,78.1016 157.5,81.5C 158.103,84.1748 159.436,86.5082 161.5,88.5C 163.897,91.0913 166.897,92.758 170.5,93.5C 170.83,109.009 170.496,124.342 169.5,139.5C 169.649,138.448 169.483,137.448 169,136.5C 152.272,107.945 135.772,79.2782 119.5,50.5 Z M 113.5,60.5 C 117.399,67.4378 121.399,74.4378 125.5,81.5C 126.765,83.7912 128.098,86.1246 129.5,88.5C 133.459,95.475 137.459,102.475 141.5,109.5C 144.978,115.923 148.645,122.256 152.5,128.5C 155.685,133.687 159.018,138.854 162.5,144C 159.989,146.326 158.656,149.159 158.5,152.5C 123.167,152.5 87.8333,152.5 52.5,152.5C 50.7511,149.803 49.0844,146.97 47.5,144C 51.4129,137.398 55.4129,130.898 59.5,124.5C 63.3554,118.256 67.0221,111.923 70.5,105.5C 72.3574,102.583 74.0241,99.5825 75.5,96.5C 77.8483,92.4645 80.1816,88.4645 82.5,84.5C 83.9017,82.1246 85.235,79.7912 86.5,77.5C 90.5731,70.455 94.5731,63.455 98.5,56.5C 98.9528,55.5416 99.6195,54.7083 100.5,54C 103.5,53.3333 106.5,53.3333 109.5,54C 110.719,56.2782 112.052,58.4449 113.5,60.5 Z M 53.5,163.5 C 87.9976,162.336 122.664,162.169 157.5,163C 144.08,170.095 130.913,177.595 118,185.5C 114.541,181.605 110.208,179.939 105,180.5C 99.5482,181.011 94.3815,182.178 89.5,184C 77.9605,176.396 65.9605,169.562 53.5,163.5 Z"/></g>
<g><path style="opacity:0.004" fill="#fe0000" d="M 21.5,89.5 C 20.8333,90.1667 20.8333,90.1667 21.5,89.5 Z"/></g>
<g><path style="opacity:0.004" fill="#fe00ff" d="M 25.5,92.5 C 24.8333,93.1667 24.8333,93.1667 25.5,92.5 Z"/></g>
<g><path style="opacity:0.004" fill="#fe00ff" d="M 182.5,93.5 C 183.833,94.1667 183.833,94.1667 182.5,93.5 Z"/></g>
<g><path style="opacity:0.863" fill="#bba7c6" d="M 39.5,93.5 C 39.1707,108.343 39.504,123.01 40.5,137.5C 40.9382,137.435 41.2716,137.601 41.5,138C 40.9535,138.925 40.2868,139.758 39.5,140.5C 38.1735,124.672 38.1735,109.005 39.5,93.5 Z"/></g>
<g><path style="opacity:1" fill="#ba98c3" d="M 170.5,93.5 C 171.827,109.005 171.827,124.672 170.5,140.5C 169.893,140.376 169.56,140.043 169.5,139.5C 170.496,124.342 170.83,109.009 170.5,93.5 Z"/></g>
<g><path style="opacity:1" fill="#9d80a8" d="M 52.5,152.5 C 87.8333,152.5 123.167,152.5 158.5,152.5C 158.389,153.117 158.056,153.617 157.5,154C 140,154.167 122.5,154.333 105,154.5C 87.1537,154.5 69.6537,153.833 52.5,152.5 Z"/></g>
<g><path style="opacity:0.004" fill="#fe0000" d="M 165.5,173.5 C 164.833,174.167 164.833,174.167 165.5,173.5 Z"/></g>
<g><path style="opacity:0.004" fill="#fe0000" d="M 57.5,176.5 C 56.8333,177.167 56.8333,177.167 57.5,176.5 Z"/></g>
<g><path style="opacity:0.004" fill="#fe0000" d="M 151.5,176.5 C 152.833,177.167 152.833,177.167 151.5,176.5 Z"/></g>
<g><path style="opacity:0.004" fill="#fe0000" d="M 65.5,181.5 C 64.8333,182.167 64.8333,182.167 65.5,181.5 Z"/></g>
<g><path style="opacity:0.004" fill="#fe00ff" d="M 130.5,188.5 C 131.833,189.167 131.833,189.167 130.5,188.5 Z"/></g>
<g><path style="opacity:0.004" fill="#fe00ff" d="M 84.5,192.5 C 83.8333,193.167 83.8333,193.167 84.5,192.5 Z"/></g>
<g><path style="opacity:0.004" fill="#fe0000" d="M 123.5,192.5 C 124.833,193.167 124.833,193.167 123.5,192.5 Z"/></g>
<g><path style="opacity:0.004" fill="#fe00ff" d="M 89.5,208.5 C 88.8333,209.167 88.8333,209.167 89.5,208.5 Z"/></g>
</svg>
